<svg width="132" height="31" viewBox="0 0 132 31" fill="none" xmlns="http://www.w3.org/2000/svg">
<path d="M9.92004 0C10.3894 0 10.848 0.0639998 11.296 0.191999C11.744 0.319999 12.1174 0.533332 12.416 0.831999C12.7147 1.10933 12.864 1.48267 12.864 1.952C12.864 2.48533 12.704 2.912 12.384 3.232C12.0854 3.53067 11.7334 3.68 11.328 3.68C11.136 3.68 10.848 3.63733 10.464 3.552C10.08 3.44533 9.70671 3.392 9.34404 3.392C8.81071 3.392 8.39471 3.50933 8.09604 3.744C7.81871 3.97867 7.62671 4.256 7.52004 4.576C7.41337 4.87467 7.36004 5.14133 7.36004 5.376V21.728C7.36004 22.2827 7.17871 22.752 6.81604 23.136C6.45337 23.4987 5.99471 23.68 5.44004 23.68C4.88537 23.68 4.42671 23.4987 4.06404 23.136C3.70137 22.752 3.52004 22.2827 3.52004 21.728V5.408C3.52004 3.89333 4.05337 2.61333 5.12004 1.568C6.18671 0.522666 7.78671 0 9.92004 0ZM10.272 6.88C10.784 6.88 11.2107 7.05067 11.552 7.392C11.8934 7.712 12.064 8.128 12.064 8.64C12.064 9.152 11.8934 9.57867 11.552 9.92C11.2107 10.24 10.784 10.4 10.272 10.4H1.79204C1.28004 10.4 0.853372 10.24 0.512039 9.92C0.170706 9.57867 3.91006e-05 9.152 3.91006e-05 8.64C3.91006e-05 8.128 0.170706 7.712 0.512039 7.392C0.853372 7.05067 1.28004 6.88 1.79204 6.88H10.272ZM18.72 21.728C18.72 22.2827 18.5387 22.752 18.176 23.136C17.8134 23.4987 17.3547 23.68 16.8 23.68C16.2454 23.68 15.7867 23.4987 15.424 23.136C15.0614 22.752 14.88 22.2827 14.88 21.728V8.512C14.88 7.95733 15.0614 7.49867 15.424 7.136C15.7867 6.752 16.2454 6.56 16.8 6.56C17.3547 6.56 17.8134 6.752 18.176 7.136C18.5387 7.49867 18.72 7.95733 18.72 8.512V21.728ZM16.768 4.48C16.0427 4.48 15.5307 4.36267 15.232 4.128C14.9334 3.89333 14.784 3.47733 14.784 2.88V2.272C14.784 1.65333 14.944 1.23733 15.264 1.024C15.6054 0.789333 16.1174 0.671999 16.8 0.671999C17.5467 0.671999 18.0694 0.789333 18.368 1.024C18.6667 1.25867 18.816 1.67467 18.816 2.272V2.88C18.816 3.49867 18.656 3.92533 18.336 4.16C18.016 4.37333 17.4934 4.48 16.768 4.48ZM26.8113 21.728C26.8113 22.2827 26.6193 22.752 26.2353 23.136C25.8726 23.4987 25.414 23.68 24.8593 23.68C24.326 23.68 23.878 23.4987 23.5153 23.136C23.1526 22.752 22.9713 22.2827 22.9713 21.728V1.952C22.9713 1.39733 23.1526 0.938665 23.5153 0.575998C23.8993 0.191999 24.3686 0 24.9233 0C25.478 0 25.926 0.191999 26.2673 0.575998C26.63 0.938665 26.8113 1.39733 26.8113 1.952V21.728ZM35.4363 21.728C35.4363 22.2827 35.2443 22.752 34.8603 23.136C34.4976 23.4987 34.039 23.68 33.4843 23.68C32.951 23.68 32.503 23.4987 32.1403 23.136C31.7776 22.752 31.5963 22.2827 31.5963 21.728V1.952C31.5963 1.39733 31.7776 0.938665 32.1403 0.575998C32.5243 0.191999 32.9936 0 33.5483 0C34.103 0 34.551 0.191999 34.8923 0.575998C35.255 0.938665 35.4363 1.39733 35.4363 1.952V21.728ZM47.4213 24C45.928 24 44.584 23.8187 43.3893 23.456C42.1946 23.072 41.0533 22.4107 39.9653 21.472C39.688 21.2373 39.4746 20.9707 39.3253 20.672C39.176 20.3733 39.1013 20.0747 39.1013 19.776C39.1013 19.2853 39.272 18.8587 39.6133 18.496C39.976 18.112 40.424 17.92 40.9573 17.92C41.3626 17.92 41.7253 18.048 42.0453 18.304C42.856 18.9653 43.656 19.4667 44.4453 19.808C45.256 20.1493 46.248 20.32 47.4213 20.32C48.2106 20.32 48.936 20.2027 49.5973 19.968C50.2586 19.712 50.792 19.3813 51.1973 18.976C51.6026 18.5493 51.8053 18.0693 51.8053 17.536C51.8053 16.896 51.6133 16.352 51.2293 15.904C50.8453 15.456 50.2586 15.0827 49.4693 14.784C48.68 14.464 47.6773 14.2187 46.4613 14.048C45.3093 13.8773 44.296 13.6213 43.4213 13.28C42.5466 12.9173 41.8106 12.4693 41.2133 11.936C40.6373 11.3813 40.2 10.7413 39.9013 10.016C39.6026 9.26933 39.4533 8.43733 39.4533 7.52C39.4533 6.13333 39.8053 4.94933 40.5093 3.968C41.2346 2.98667 42.2053 2.24 43.4213 1.728C44.6373 1.216 45.9813 0.959999 47.4533 0.959999C48.84 0.959999 50.12 1.17333 51.2933 1.6C52.488 2.00533 53.4586 2.528 54.2053 3.168C54.824 3.65867 55.1333 4.224 55.1333 4.864C55.1333 5.33333 54.952 5.76 54.5893 6.144C54.2266 6.528 53.8 6.72 53.3093 6.72C52.9893 6.72 52.7013 6.624 52.4453 6.432C52.104 6.13333 51.6453 5.856 51.0693 5.6C50.4933 5.32267 49.8853 5.09867 49.2453 4.928C48.6053 4.736 48.008 4.64 47.4533 4.64C46.536 4.64 45.7573 4.75733 45.1173 4.992C44.4986 5.22667 44.0293 5.54667 43.7093 5.952C43.3893 6.35733 43.2293 6.82667 43.2293 7.36C43.2293 8 43.4106 8.53333 43.7733 8.96C44.1573 9.36533 44.7013 9.696 45.4053 9.952C46.1093 10.1867 46.952 10.4 47.9333 10.592C49.2133 10.8267 50.3333 11.104 51.2933 11.424C52.2746 11.744 53.0853 12.16 53.7253 12.672C54.3653 13.1627 54.8453 13.792 55.1653 14.56C55.4853 15.3067 55.6453 16.224 55.6453 17.312C55.6453 18.6987 55.2613 19.8933 54.4933 20.896C53.7253 21.8987 52.712 22.6667 51.4533 23.2C50.216 23.7333 48.872 24 47.4213 24ZM67.859 6.24C69.3524 6.24 70.6857 6.624 71.859 7.392C73.0537 8.13867 73.9924 9.17333 74.675 10.496C75.379 11.8187 75.731 13.3547 75.731 15.104C75.731 16.8533 75.379 18.4 74.675 19.744C73.9924 21.0667 73.0644 22.112 71.891 22.88C70.739 23.6267 69.4377 24 67.987 24C67.1337 24 66.3337 23.8613 65.587 23.584C64.8404 23.3067 64.179 22.9547 63.603 22.528C63.0484 22.1013 62.611 21.6747 62.291 21.248C61.9924 20.8 61.843 20.4267 61.843 20.128L62.835 19.712V28.128C62.835 28.6827 62.6537 29.1413 62.291 29.504C61.9284 29.888 61.4697 30.08 60.915 30.08C60.3604 30.08 59.9017 29.8987 59.539 29.536C59.1764 29.1733 58.995 28.704 58.995 28.128V8.512C58.995 7.95733 59.1764 7.49867 59.539 7.136C59.9017 6.752 60.3604 6.56 60.915 6.56C61.4697 6.56 61.9284 6.752 62.291 7.136C62.6537 7.49867 62.835 7.95733 62.835 8.512V10.08L62.291 9.792C62.291 9.51467 62.4404 9.184 62.739 8.8C63.0377 8.39467 63.443 8 63.955 7.616C64.467 7.21067 65.0537 6.88 65.715 6.624C66.3977 6.368 67.1124 6.24 67.859 6.24ZM67.379 9.76C66.4404 9.76 65.619 9.99467 64.915 10.464C64.211 10.9333 63.6564 11.5733 63.251 12.384C62.867 13.1733 62.675 14.08 62.675 15.104C62.675 16.1067 62.867 17.024 63.251 17.856C63.6564 18.6667 64.211 19.3067 64.915 19.776C65.619 20.2453 66.4404 20.48 67.379 20.48C68.3177 20.48 69.1284 20.2453 69.811 19.776C70.515 19.3067 71.059 18.6667 71.443 17.856C71.8484 17.024 72.051 16.1067 72.051 15.104C72.051 14.08 71.8484 13.1733 71.443 12.384C71.059 11.5733 70.515 10.9333 69.811 10.464C69.1284 9.99467 68.3177 9.76 67.379 9.76ZM93.1048 6.24C93.6595 6.24 94.1181 6.42133 94.4808 6.784C94.8435 7.14667 95.0248 7.616 95.0248 8.192V21.728C95.0248 22.2827 94.8435 22.752 94.4808 23.136C94.1181 23.4987 93.6595 23.68 93.1048 23.68C92.5501 23.68 92.0915 23.4987 91.7288 23.136C91.3661 22.752 91.1848 22.2827 91.1848 21.728V20.16L91.8888 20.448C91.8888 20.7253 91.7395 21.0667 91.4408 21.472C91.1421 21.856 90.7368 22.24 90.2248 22.624C89.7128 23.008 89.1048 23.3387 88.4008 23.616C87.7181 23.872 86.9715 24 86.1608 24C84.6888 24 83.3555 23.6267 82.1608 22.88C80.9661 22.112 80.0168 21.0667 79.3128 19.744C78.6301 18.4 78.2888 16.864 78.2888 15.136C78.2888 13.3867 78.6301 11.8507 79.3128 10.528C80.0168 9.184 80.9555 8.13867 82.1288 7.392C83.3021 6.624 84.6035 6.24 86.0328 6.24C86.9501 6.24 87.7928 6.37867 88.5608 6.656C89.3288 6.93333 89.9901 7.28533 90.5448 7.712C91.1208 8.13867 91.5581 8.576 91.8568 9.024C92.1768 9.45067 92.3368 9.81333 92.3368 10.112L91.1848 10.528V8.192C91.1848 7.63733 91.3661 7.17867 91.7288 6.816C92.0915 6.432 92.5501 6.24 93.1048 6.24ZM86.6408 20.48C87.5795 20.48 88.4008 20.2453 89.1048 19.776C89.8088 19.3067 90.3528 18.6667 90.7368 17.856C91.1421 17.0453 91.3448 16.1387 91.3448 15.136C91.3448 14.112 91.1421 13.1947 90.7368 12.384C90.3528 11.5733 89.8088 10.9333 89.1048 10.464C88.4008 9.99467 87.5795 9.76 86.6408 9.76C85.7235 9.76 84.9128 9.99467 84.2088 10.464C83.5048 10.9333 82.9501 11.5733 82.5448 12.384C82.1608 13.1947 81.9688 14.112 81.9688 15.136C81.9688 16.1387 82.1608 17.0453 82.5448 17.856C82.9501 18.6667 83.5048 19.3067 84.2088 19.776C84.9128 20.2453 85.7235 20.48 86.6408 20.48ZM106.799 6.24C108.015 6.24 109.071 6.368 109.967 6.624C110.884 6.88 111.588 7.24267 112.079 7.712C112.591 8.16 112.847 8.704 112.847 9.344C112.847 9.77067 112.719 10.176 112.463 10.56C112.207 10.9227 111.833 11.104 111.343 11.104C111.001 11.104 110.713 11.0613 110.479 10.976C110.265 10.8693 110.073 10.7413 109.903 10.592C109.732 10.4427 109.529 10.304 109.295 10.176C109.081 10.048 108.751 9.952 108.303 9.888C107.876 9.80267 107.556 9.76 107.343 9.76C106.255 9.76 105.327 9.99467 104.559 10.464C103.812 10.9333 103.236 11.5733 102.831 12.384C102.425 13.1733 102.223 14.0907 102.223 15.136C102.223 16.16 102.425 17.0773 102.831 17.888C103.257 18.6773 103.833 19.3067 104.559 19.776C105.305 20.2453 106.159 20.48 107.119 20.48C107.652 20.48 108.111 20.448 108.495 20.384C108.879 20.32 109.199 20.224 109.455 20.096C109.753 19.9253 110.02 19.744 110.255 19.552C110.489 19.36 110.841 19.264 111.311 19.264C111.865 19.264 112.292 19.4453 112.591 19.808C112.889 20.1493 113.039 20.576 113.039 21.088C113.039 21.6213 112.74 22.112 112.143 22.56C111.545 22.9867 110.756 23.3387 109.775 23.616C108.815 23.872 107.769 24 106.639 24C104.953 24 103.492 23.616 102.255 22.848C101.017 22.0587 100.057 20.992 99.3745 19.648C98.7132 18.304 98.3825 16.8 98.3825 15.136C98.3825 13.3867 98.7345 11.8507 99.4385 10.528C100.164 9.184 101.156 8.13867 102.415 7.392C103.695 6.624 105.156 6.24 106.799 6.24ZM123.872 24C122.058 24 120.48 23.6267 119.136 22.88C117.813 22.112 116.789 21.0773 116.064 19.776C115.36 18.4747 115.008 17.0027 115.008 15.36C115.008 13.44 115.392 11.808 116.16 10.464C116.949 9.09867 117.973 8.05333 119.232 7.328C120.49 6.60267 121.824 6.24 123.232 6.24C124.32 6.24 125.344 6.464 126.304 6.912C127.285 7.36 128.149 7.97867 128.896 8.768C129.642 9.536 130.229 10.432 130.656 11.456C131.104 12.48 131.328 13.568 131.328 14.72C131.306 15.232 131.104 15.648 130.72 15.968C130.336 16.288 129.888 16.448 129.376 16.448H117.152L116.192 13.248H127.936L127.232 13.888V13.024C127.189 12.4053 126.965 11.8507 126.56 11.36C126.176 10.8693 125.685 10.4853 125.088 10.208C124.512 9.90933 123.893 9.76 123.232 9.76C122.592 9.76 121.994 9.84533 121.44 10.016C120.885 10.1867 120.405 10.4747 120 10.88C119.594 11.2853 119.274 11.8293 119.04 12.512C118.805 13.1947 118.688 14.0587 118.688 15.104C118.688 16.256 118.922 17.2373 119.392 18.048C119.882 18.8373 120.501 19.4453 121.248 19.872C122.016 20.2773 122.826 20.48 123.68 20.48C124.469 20.48 125.098 20.416 125.568 20.288C126.037 20.16 126.41 20.0107 126.688 19.84C126.986 19.648 127.253 19.488 127.488 19.36C127.872 19.168 128.234 19.072 128.576 19.072C129.045 19.072 129.429 19.232 129.728 19.552C130.048 19.872 130.208 20.2453 130.208 20.672C130.208 21.248 129.909 21.7707 129.312 22.24C128.757 22.7093 127.978 23.1253 126.976 23.488C125.973 23.8293 124.938 24 123.872 24Z" fill="white"/>
</svg>
